<svg width="95" height="44" viewBox="0 0 95 44" fill="none" xmlns="http://www.w3.org/2000/svg">
<path d="M8.81946 24.9061C7.73909 22.6637 7.1534 20.4729 6.8833 18.6159C7.42653 16.8984 9.04399 15.6543 10.9529 15.6543H13.0317C12.6585 16.2946 12.4035 17.0077 12.2942 17.7693H10.9529C9.77542 17.7693 8.81946 18.716 8.81946 19.8842V24.9031V24.9061Z" fill="#669961"/>
<path d="M22.011 0C18.3267 0 14.6577 1.12575 7.76579 3.24374L6.87964 3.51684V15.5026C6.87964 15.6908 6.87965 15.8819 6.88875 16.0791C7.44412 15.3964 8.24225 14.8897 8.84616 14.6044V4.97939C15.5075 2.93727 18.7667 1.97841 22.011 1.97841C25.2551 1.97841 28.5174 2.93727 35.1757 4.97939V14.6044C35.7796 14.8897 36.5777 15.3964 37.1331 16.0791C37.1391 15.8819 37.1422 15.6908 37.1422 15.5026V3.51684L36.256 3.24374C29.3641 1.12879 25.6951 0 22.011 0Z" fill="#669961"/>
<path fill-rule="evenodd" clip-rule="evenodd" d="M24.0263 8.46283C24.0263 9.5127 23.1735 10.3654 22.1205 10.3654C21.0673 10.3654 20.2146 9.5127 20.2146 8.46283C20.2146 7.41294 21.0673 6.56029 22.1205 6.56029C23.1735 6.56029 24.0263 7.41294 24.0263 8.46283ZM26.3539 8.46283C26.3539 10.7993 24.4572 12.6928 22.1205 12.6928C19.7837 12.6928 17.887 10.7993 17.887 8.46283C17.887 6.12637 19.7837 4.23293 22.1205 4.23293C24.4572 4.23293 26.3539 6.12637 26.3539 8.46283Z" fill="#669961"/>
<path fill-rule="evenodd" clip-rule="evenodd" d="M14.9253 10.7871C14.9253 11.488 14.3577 12.0555 13.6537 12.0555C12.9496 12.0555 12.3821 11.488 12.3821 10.7871C12.3821 10.0862 12.9496 9.51878 13.6537 9.51878C14.3577 9.51878 14.9253 10.0862 14.9253 10.7871ZM16.6186 10.7871C16.6186 12.4227 15.2924 13.7487 13.6537 13.7487C12.0149 13.7487 10.6887 12.4227 10.6887 10.7871C10.6887 9.15163 12.0149 7.82559 13.6537 7.82559C15.2924 7.82559 16.6186 9.15163 16.6186 10.7871Z" fill="#669961"/>
<path fill-rule="evenodd" clip-rule="evenodd" d="M30.5905 12.0586C31.2915 12.0586 31.862 11.4911 31.862 10.7902C31.862 10.0892 31.2945 9.52186 30.5905 9.52186C29.8863 9.52186 29.3189 10.0892 29.3189 10.7902C29.3189 11.4911 29.8863 12.0586 30.5905 12.0586ZM30.5905 13.7518C32.2262 13.7518 33.5554 12.4257 33.5554 10.7902C33.5554 9.15471 32.2292 7.82867 30.5905 7.82867C28.9517 7.82867 27.6255 9.15471 27.6255 10.7902C27.6255 12.4257 28.9517 13.7518 30.5905 13.7518Z" fill="#669961"/>
<path d="M0.470701 19.7234C3.76341 27.0514 6.21852 31.1659 14.5337 35.6629V35.6538C5.28988 29.931 -0.333524 20.5912 5.72688 12.0555C5.14421 25.17 10.2153 32.9957 22.0144 38.1784C33.8105 32.9957 38.8816 25.17 38.302 12.0555C44.3654 20.5912 38.739 29.9279 29.4921 35.6538V35.6629C37.8073 31.1659 40.2624 27.0514 43.5581 19.7234C46.4593 29.6761 34.9729 35.3685 26.5696 38.0024C33.0033 37.3712 37.9196 34.6434 42.757 29.3848C42.4353 37.8142 31.9198 39.1433 24.8701 38.9704C29.5528 39.8989 34.0229 39.1828 39.1062 36.9161C36.2292 42.915 28.9397 41.7862 23.204 39.6319C26.3207 41.2795 29.8168 42.0108 34.0503 42.029C30.8668 44.7023 27.2402 43.9436 23.9657 41.9471C24.7427 42.6541 25.6379 43.3125 26.6606 43.9436C24.9945 44.2016 23.6319 43.5461 22.6305 42.5266C22.4757 43.2063 22.2602 43.7525 22.0083 43.8253C21.7565 43.7525 21.541 43.2063 21.3862 42.5266C20.3848 43.5461 19.0222 44.1986 17.3561 43.9436C18.3788 43.3125 19.274 42.6541 20.051 41.9471C16.7765 43.9436 13.1499 44.7023 9.96642 42.029C14.1999 42.0108 17.696 41.2825 20.8127 39.6319C15.077 41.7862 7.7875 42.915 4.91055 36.9161C9.99373 39.1828 14.4639 39.8989 19.1465 38.9704C12.0968 39.1433 1.58141 37.8142 1.25973 29.3848C6.09713 34.6463 11.0135 37.3712 17.4471 38.0024C9.04385 35.3685 -2.44268 29.6761 0.458551 19.7234H0.470701Z" fill="#669961"/>
<path d="M22.0115 35.9603L23.9112 39.5499L22.0115 43.1396L20.1147 39.5499L22.0115 35.9603Z" fill="#669961"/>
<path d="M30.1448 18.6158V31.7789C29.4317 32.4222 28.6517 33.0442 27.7989 33.6329V18.6158C27.7989 17.5629 26.9401 16.7103 25.881 16.7103H18.2031C17.1439 16.7103 16.2851 17.5629 16.2851 18.6158V33.5662C15.4323 32.9745 14.6524 32.3494 13.9392 31.7V18.6158C13.9392 16.2793 15.8481 14.3829 18.2031 14.3829H25.881C28.236 14.3829 30.1448 16.2763 30.1448 18.6158Z" fill="#669961"/>
<path d="M35.2063 24.9061C36.2867 22.6637 36.8724 20.4729 37.1425 18.6159C36.5993 16.8984 34.9818 15.6543 33.0729 15.6543H30.9941C31.3674 16.2946 31.6223 17.0077 31.7316 17.7693H33.0729C34.2504 17.7693 35.2063 18.716 35.2063 19.8842V24.9031V24.9061Z" fill="#669961"/>
<path d="M53.5093 1.92038C53.3535 1.83612 53.231 1.71869 53.1417 1.56891C53.0523 1.41913 53.0081 1.25151 53.0081 1.06686C53.0081 0.882201 53.0523 0.714575 53.1417 0.564797C53.2302 0.415019 53.3527 0.297593 53.5093 0.213333C53.6659 0.129073 53.8403 0.0865326 54.0352 0.0865326C54.2301 0.0865326 54.4045 0.129073 54.5611 0.213333C54.7168 0.297593 54.8394 0.414123 54.9287 0.563086C55.0181 0.711968 55.0623 0.879674 55.0623 1.06686C55.0623 1.25412 55.0181 1.42174 54.9287 1.57063C54.8402 1.71959 54.7168 1.83612 54.5611 1.92038C54.4054 2.00464 54.2301 2.04717 54.0352 2.04717C53.8403 2.04717 53.6659 2.00464 53.5093 1.92038ZM54.3781 1.65065C54.4802 1.59361 54.5594 1.51366 54.6181 1.41066C54.676 1.30766 54.7049 1.19365 54.7049 1.06604C54.7049 0.938346 54.676 0.824339 54.6181 0.721336C54.5602 0.618414 54.4802 0.539292 54.3781 0.481353C54.2769 0.424392 54.162 0.395461 54.0352 0.395461C53.9084 0.395461 53.7935 0.424392 53.6922 0.481353C53.5901 0.538396 53.511 0.618414 53.4523 0.721336C53.3935 0.824339 53.3655 0.938346 53.3655 1.06604C53.3655 1.19365 53.3944 1.30766 53.4523 1.41066C53.5101 1.51366 53.5901 1.59279 53.6922 1.65065C53.7935 1.70761 53.9084 1.73662 54.0352 1.73662C54.162 1.73662 54.2769 1.70761 54.3781 1.65065Z" fill="#669961"/>
<path d="M55.6017 0.494148C55.6247 0.529922 55.6358 0.571561 55.6358 0.620944C55.6358 0.686462 55.6145 0.740082 55.5728 0.781804C55.5311 0.823446 55.4792 0.844797 55.4179 0.844797C55.3524 0.844797 55.2988 0.824342 55.2571 0.781804C55.2154 0.740082 55.1941 0.686462 55.1941 0.620944C55.1941 0.588592 55.1984 0.556245 55.206 0.525687C55.2145 0.495047 55.2298 0.44819 55.2537 0.38691L55.3983 0.000564575H55.6162L55.5073 0.417548C55.5473 0.433764 55.5787 0.460084 55.6009 0.495044L55.6017 0.494148Z" fill="#669961"/>
<path d="M57.4193 1.72041V2.01996H55.7939V1.7834L56.9155 0.413312H55.8127V0.113754H57.3835V0.35032L56.262 1.72041H57.4193Z" fill="#669961"/>
<path d="M59.2771 1.20132C59.3383 1.28215 59.3699 1.38255 59.3699 1.50259C59.3699 1.66768 59.3061 1.79529 59.1793 1.8855C59.0525 1.97571 58.8669 2.01996 58.6235 2.01996H57.6755V0.113754H58.5691C58.7937 0.113754 58.9673 0.158005 59.0891 0.245688C59.2107 0.334185 59.2711 0.455033 59.2711 0.609049C59.2711 0.703495 59.249 0.78686 59.2056 0.859223C59.1622 0.931586 59.1018 0.987731 59.0261 1.02774C59.1316 1.06262 59.215 1.11966 59.2762 1.2005L59.2771 1.20132ZM58.0295 0.391229V0.917082H58.5308C58.6541 0.917082 58.7495 0.894996 58.815 0.850748C58.8814 0.806499 58.9146 0.740984 58.9146 0.655827C58.9146 0.570752 58.8814 0.502708 58.815 0.458459C58.7487 0.41421 58.6541 0.391229 58.5308 0.391229H58.0295ZM59.0125 1.46681C59.0125 1.28387 58.8755 1.19195 58.6014 1.19195H58.0295V1.74168H58.6014C58.8755 1.74168 59.0125 1.64975 59.0125 1.46681Z" fill="#669961"/>
<path d="M61.1091 1.72293V2.01996H59.6794V0.113754H61.0708V0.410786H60.0334V0.906001H60.9542V1.19708H60.0334V1.72293H61.1091Z" fill="#669961"/>
<path d="M62.0919 1.22177L61.7898 1.53233V2.01996H61.4358V0.113754H61.7898V1.09155L62.7318 0.113754H63.1292L62.3284 0.966466L63.1777 2.01996H62.7642L62.0919 1.22177Z" fill="#669961"/>
<path d="M63.353 0.113754H63.707V2.01996H63.353V0.113754Z" fill="#669961"/>
<path d="M64.3182 1.98418C64.1812 1.94254 64.0723 1.88721 63.9932 1.81827L64.1157 1.5434C64.194 1.60469 64.2893 1.6557 64.4034 1.6949C64.5165 1.73401 64.6306 1.75357 64.7455 1.75357C64.8867 1.75357 64.993 1.73059 65.0629 1.68552C65.1326 1.64038 65.1675 1.58 65.1675 1.506C65.1675 1.45149 65.148 1.40642 65.1088 1.37154C65.0696 1.33577 65.0203 1.30855 64.9608 1.2881C64.9012 1.26773 64.8195 1.24556 64.7157 1.22006C64.5701 1.18599 64.4527 1.15111 64.3634 1.11624C64.2732 1.08136 64.1966 1.02774 64.1319 0.954564C64.0672 0.88049 64.0349 0.781804 64.0349 0.656717C64.0349 0.551188 64.0638 0.455842 64.1209 0.369056C64.1778 0.283084 64.2638 0.214146 64.3795 0.163133C64.4944 0.112039 64.6356 0.0865326 64.8033 0.0865326C64.9199 0.0865326 65.034 0.101039 65.1462 0.129968C65.2585 0.158897 65.3556 0.200536 65.4372 0.255053L65.3258 0.529916C65.2424 0.480534 65.1547 0.443946 65.0646 0.41844C64.9735 0.392852 64.8859 0.380142 64.8007 0.380142C64.6612 0.380142 64.5574 0.403938 64.4893 0.450794C64.4212 0.497569 64.3872 0.560561 64.3872 0.638792C64.3872 0.693308 64.4067 0.737553 64.4459 0.772431C64.485 0.807308 64.5344 0.834527 64.594 0.854085C64.6536 0.873724 64.7352 0.896704 64.839 0.92221C64.9803 0.954561 65.0969 0.989438 65.188 1.02432C65.279 1.06009 65.3564 1.11363 65.4211 1.18599C65.4858 1.25836 65.5181 1.35622 65.5181 1.48041C65.5181 1.58594 65.4892 1.68129 65.4322 1.76636C65.3751 1.85144 65.2884 1.91956 65.1717 1.97057C65.0552 2.02167 64.9139 2.04717 64.7471 2.04717C64.5999 2.04717 64.4578 2.02591 64.3208 1.98418H64.3182Z" fill="#669961"/>
<path d="M66.1583 0.413312H65.5269V0.113754H67.1446V0.413312H66.5131V2.01996H66.1591V0.413312H66.1583Z" fill="#669961"/>
<path d="M67.6804 1.92038C67.5246 1.83612 67.4013 1.71869 67.3128 1.56891C67.2243 1.41913 67.1792 1.25151 67.1792 1.06686C67.1792 0.882201 67.2234 0.714575 67.3128 0.564797C67.4022 0.415019 67.5246 0.297593 67.6804 0.213333C67.8361 0.129073 68.0115 0.0865326 68.2063 0.0865326C68.4011 0.0865326 68.5756 0.129073 68.7322 0.213333C68.8888 0.297593 69.0104 0.414123 69.0998 0.563086C69.1883 0.711968 69.2334 0.879674 69.2334 1.06686C69.2334 1.25412 69.1891 1.42174 69.0998 1.57063C69.0104 1.71959 68.888 1.83612 68.7322 1.92038C68.5765 2.00464 68.4011 2.04717 68.2063 2.04717C68.0115 2.04717 67.837 2.00464 67.6804 1.92038ZM68.5492 1.65065C68.6505 1.59361 68.7305 1.51366 68.7892 1.41066C68.847 1.30766 68.876 1.19365 68.876 1.06604C68.876 0.938346 68.847 0.824339 68.7892 0.721336C68.7313 0.618414 68.6513 0.539292 68.5492 0.481353C68.4471 0.424392 68.3331 0.395461 68.2063 0.395461C68.0795 0.395461 67.9646 0.424392 67.8633 0.481353C67.7621 0.538396 67.6821 0.618414 67.6234 0.721336C67.5655 0.824339 67.5365 0.938346 67.5365 1.06604C67.5365 1.19365 67.5655 1.30766 67.6234 1.41066C67.6813 1.51366 67.7612 1.59279 67.8633 1.65065C67.9655 1.70851 68.0795 1.73662 68.2063 1.73662C68.3331 1.73662 68.448 1.70761 68.5492 1.65065Z" fill="#669961"/>
<path d="M71.234 0.113754V2.01996H70.943L69.892 0.729005V2.01996H69.5405V0.113754H69.8316L70.8825 1.40472V0.113754H71.234Z" fill="#669961"/>
<path d="M73.6084 2.01996L73.2187 1.46176C73.2025 1.46339 73.1779 1.46428 73.1455 1.46428H72.7149V2.01996H72.3608V0.113754H73.1455C73.3106 0.113754 73.4544 0.140976 73.5769 0.195493C73.6995 0.249928 73.7931 0.328237 73.8586 0.429447C73.9241 0.530739 73.9565 0.651586 73.9565 0.791993C73.9565 0.9324 73.9215 1.0592 73.8518 1.1622C73.782 1.26602 73.6816 1.34262 73.5505 1.39363L73.9888 2.01996H73.6076H73.6084ZM73.4808 0.511181C73.4008 0.445663 73.2842 0.413312 73.1293 0.413312H72.7157V1.1732H73.1293C73.2833 1.1732 73.4008 1.14004 73.4808 1.07371C73.5608 1.00729 73.6008 0.913657 73.6008 0.791993C73.6008 0.670329 73.5608 0.576698 73.4808 0.511181Z" fill="#669961"/>
<path d="M75.7125 1.72293V2.01996H74.283V0.113754H75.6742V0.410786H74.6369V0.906001H75.5577V1.19708H74.6369V1.72293H75.7125Z" fill="#669961"/>
<path d="M76.2045 1.98418C76.0675 1.94254 75.9585 1.88721 75.8794 1.81827L76.002 1.5434C76.0803 1.60469 76.1755 1.6557 76.2896 1.6949C76.4027 1.73401 76.5168 1.75357 76.6317 1.75357C76.7729 1.75357 76.8793 1.73059 76.9491 1.68552C77.0189 1.64038 77.0537 1.58 77.0537 1.506C77.0537 1.45149 77.0342 1.40642 76.9951 1.37154C76.9559 1.33577 76.9066 1.30855 76.847 1.2881C76.7874 1.26773 76.7057 1.24556 76.6019 1.22006C76.4563 1.18599 76.3389 1.15111 76.2496 1.11624C76.1594 1.08136 76.0828 1.02774 76.0181 0.954564C75.9535 0.88049 75.9211 0.781804 75.9211 0.656717C75.9211 0.551188 75.95 0.455842 76.0071 0.369056C76.0641 0.283084 76.15 0.214146 76.2657 0.163133C76.3806 0.112039 76.5219 0.0865326 76.6896 0.0865326C76.8061 0.0865326 76.9202 0.101039 77.0325 0.129968C77.1448 0.158897 77.2418 0.200536 77.3235 0.255053L77.212 0.529916C77.1286 0.480534 77.0409 0.443946 76.9508 0.41844C76.8597 0.392852 76.7721 0.380142 76.687 0.380142C76.5474 0.380142 76.4436 0.403938 76.3755 0.450794C76.3075 0.497569 76.2734 0.560561 76.2734 0.638792C76.2734 0.693308 76.293 0.737553 76.3322 0.772431C76.3713 0.807308 76.4207 0.834527 76.4802 0.854085C76.5398 0.873724 76.6214 0.896704 76.7253 0.92221C76.8666 0.954561 76.9831 0.989438 77.0742 1.02432C77.1652 1.06009 77.2426 1.11363 77.3073 1.18599C77.372 1.25836 77.4044 1.35622 77.4044 1.48041C77.4044 1.58594 77.3754 1.68129 77.3184 1.76636C77.2614 1.85144 77.1746 1.91956 77.058 1.97057C76.9415 2.02167 76.8001 2.04717 76.6333 2.04717C76.4862 2.04717 76.344 2.02591 76.2071 1.98418H76.2045Z" fill="#669961"/>
<path d="M78.9006 0.195493C79.0232 0.249928 79.1167 0.328237 79.1823 0.429447C79.2479 0.530739 79.2801 0.651586 79.2801 0.791993C79.2801 0.9324 79.2479 1.05073 79.1823 1.15283C79.1167 1.25575 79.0232 1.33406 78.9006 1.3885C78.7781 1.44301 78.6343 1.47023 78.4692 1.47023H78.0386V2.01996H77.6846V0.113754H78.4692C78.6343 0.113754 78.7781 0.140976 78.9006 0.195493ZM78.8037 1.07199C78.8836 1.00648 78.9236 0.912842 78.9236 0.791993C78.9236 0.671144 78.8836 0.576698 78.8037 0.511181C78.7236 0.445663 78.607 0.413312 78.4522 0.413312H78.0386V1.17068H78.4522C78.6062 1.17068 78.7236 1.13833 78.8037 1.07281V1.07199Z" fill="#669961"/>
<path d="M79.7702 1.82512C79.623 1.67706 79.5498 1.4651 79.5498 1.18942V0.113754H79.9038V1.17581C79.9038 1.54936 80.0655 1.73662 80.3888 1.73662C80.7122 1.73662 80.8705 1.54936 80.8705 1.17581V0.113754H81.2194V1.18942C81.2194 1.4651 81.1462 1.67706 80.9998 1.82512C80.8535 1.97319 80.6493 2.04718 80.3854 2.04718C80.1216 2.04718 79.9174 1.97319 79.7702 1.82512Z" fill="#669961"/>
<path d="M83.2481 1.20132C83.3094 1.28215 83.3408 1.38255 83.3408 1.50259C83.3408 1.66768 83.277 1.79529 83.1502 1.8855C83.0234 1.97571 82.8379 2.01996 82.5945 2.01996H81.6465V0.113754H82.54C82.7656 0.113754 82.9383 0.158005 83.06 0.245688C83.1817 0.334185 83.2421 0.455033 83.2421 0.609049C83.2421 0.703495 83.22 0.78686 83.1765 0.859223C83.1332 0.931586 83.0727 0.987731 82.997 1.02774C83.1025 1.06262 83.1859 1.11966 83.2472 1.2005L83.2481 1.20132ZM82.0006 0.391229V0.917082H82.5017C82.6252 0.917082 82.7196 0.894996 82.786 0.850748C82.8524 0.806499 82.8855 0.740984 82.8855 0.655827C82.8855 0.570752 82.8524 0.502708 82.786 0.458459C82.7196 0.41421 82.6252 0.391229 82.5017 0.391229H82.0006ZM82.9834 1.46681C82.9834 1.28387 82.8464 1.19195 82.5724 1.19195H82.0006V1.74168H82.5724C82.8464 1.74168 82.9834 1.64975 82.9834 1.46681Z" fill="#669961"/>
<path d="M83.6504 0.113754H84.0044V1.72041H85.0009V2.01996H83.6504V0.113754Z" fill="#669961"/>
<path d="M85.2139 0.113754H85.5679V2.01996H85.2139V0.113754Z" fill="#669961"/>
<path d="M86.6708 1.22177L86.3686 1.53233V2.01996H86.0146V0.113754H86.3686V1.09155L87.3107 0.113754H87.7081L86.9074 0.966466L87.7567 2.01996H87.343L86.6708 1.22177Z" fill="#669961"/>
<path d="M89.0867 1.57919H88.1337L87.9456 2.01996H87.5806L88.4383 0.113754H88.7873L89.6476 2.01996H89.2774L89.0867 1.57919ZM88.9693 1.30171L88.6102 0.468645L88.2537 1.30171H88.9702H88.9693Z" fill="#669961"/>
<path d="M89.9862 1.98418C89.8491 1.94254 89.7403 1.88721 89.6611 1.81827L89.7836 1.5434C89.8619 1.60469 89.9573 1.6557 90.0713 1.6949C90.1845 1.73401 90.2985 1.75357 90.4134 1.75357C90.5546 1.75357 90.661 1.73059 90.7308 1.68552C90.8005 1.64038 90.8354 1.58 90.8354 1.506C90.8354 1.45149 90.8158 1.40642 90.7767 1.37154C90.7376 1.33577 90.6882 1.30855 90.6287 1.2881C90.5691 1.26773 90.4874 1.24556 90.3835 1.22006C90.2381 1.18599 90.1207 1.15111 90.0313 1.11624C89.941 1.08136 89.8644 1.02774 89.7998 0.954564C89.7351 0.88049 89.7028 0.781804 89.7028 0.656717C89.7028 0.551188 89.7317 0.455842 89.7887 0.369056C89.8458 0.283084 89.9317 0.214146 90.0474 0.163133C90.1623 0.112039 90.3036 0.0865326 90.4712 0.0865326C90.5878 0.0865326 90.7018 0.101039 90.8141 0.129968C90.9265 0.158897 91.0235 0.200536 91.1052 0.255053L90.9937 0.529916C90.9103 0.480534 90.8227 0.443946 90.7325 0.41844C90.6415 0.392852 90.5538 0.380142 90.4687 0.380142C90.3291 0.380142 90.2253 0.403938 90.1572 0.450794C90.0891 0.497569 90.0551 0.560561 90.0551 0.638792C90.0551 0.693308 90.0747 0.737553 90.1138 0.772431C90.1529 0.807308 90.2023 0.834527 90.2619 0.854085C90.3214 0.873724 90.4032 0.896704 90.507 0.92221C90.6482 0.954561 90.7648 0.989438 90.8559 1.02432C90.9469 1.06009 91.0244 1.11363 91.089 1.18599C91.1537 1.25836 91.1861 1.35622 91.1861 1.48041C91.1861 1.58594 91.1571 1.68129 91.1001 1.76636C91.043 1.85144 90.9562 1.91956 90.8397 1.97057C90.7231 2.02167 90.5819 2.04717 90.4151 2.04717C90.2678 2.04717 90.1257 2.02591 89.9887 1.98418H89.9862Z" fill="#669961"/>
<path d="M91.4658 0.113754H91.8199V2.01996H91.4658V0.113754Z" fill="#669961"/>
<path d="M54.3803 4.66397C54.51 4.72158 54.6091 4.80446 54.6784 4.91157C54.7478 5.01877 54.7819 5.14667 54.7819 5.29527C54.7819 5.44386 54.7478 5.56909 54.6784 5.67716C54.6091 5.78608 54.51 5.86896 54.3803 5.92657C54.2506 5.98427 54.0983 6.01307 53.9237 6.01307H53.468V6.59487H53.0933V4.57746H53.9237C54.0983 4.57746 54.2506 4.60627 54.3803 4.66397ZM54.2776 5.5916C54.3623 5.52226 54.4046 5.42316 54.4046 5.29527C54.4046 5.16737 54.3623 5.06741 54.2776 4.99807C54.193 4.92873 54.0687 4.89449 53.9057 4.89449H53.468V5.69604H53.9057C54.0687 5.69604 54.193 5.6618 54.2776 5.59246V5.5916Z" fill="#669961"/>
<path d="M56.4045 6.59487L55.9921 6.00411C55.975 6.00583 55.9488 6.00677 55.9147 6.00677H55.459V6.59487H55.0842V4.57746H55.9147C56.0894 4.57746 56.2415 4.60627 56.3712 4.66397C56.501 4.72158 56.6 4.80446 56.6694 4.91157C56.7387 5.01877 56.773 5.14667 56.773 5.29527C56.773 5.44386 56.736 5.57806 56.6621 5.68707C56.5883 5.79695 56.4821 5.87801 56.3433 5.932L56.8071 6.59487H56.4037H56.4045ZM56.2695 4.99807C56.1848 4.92873 56.0605 4.89449 55.8975 4.89449H55.4598V5.69872H55.8975C56.0605 5.69872 56.1848 5.66361 56.2695 5.59341C56.3542 5.52312 56.3964 5.42403 56.3964 5.29527C56.3964 5.1665 56.3542 5.06741 56.2695 4.99807Z" fill="#669961"/>
<path d="M58.6327 6.28051V6.59487H57.1196V4.57746H58.5922V4.89182H57.4943V5.41592H58.4687V5.72398H57.4943V6.28051H58.6327Z" fill="#669961"/>
<path d="M60.5457 6.27784V6.59487H58.8254V6.34451L60.0125 4.89449H58.8453V4.57746H60.5078V4.82783L59.3208 6.27784H60.5457Z" fill="#669961"/>
<path d="M60.8169 4.57746H61.1916V6.59487H60.8169V4.57746Z" fill="#669961"/>
<path d="M61.6646 4.57746H62.5462C62.7615 4.57746 62.9524 4.61895 63.1199 4.70269C63.2875 4.78643 63.4171 4.90441 63.509 5.0575C63.6009 5.21058 63.6477 5.38626 63.6477 5.58617C63.6477 5.78608 63.6017 5.96262 63.509 6.11484C63.4171 6.26792 63.2875 6.3859 63.1199 6.46964C62.9524 6.55347 62.7615 6.59487 62.5462 6.59487H61.6646V4.57746ZM62.5291 6.27784C62.6769 6.27784 62.8075 6.2499 62.92 6.19324C63.0325 6.13649 63.119 6.05628 63.1794 5.95089C63.2397 5.84645 63.2703 5.72485 63.2703 5.58617C63.2703 5.44749 63.2397 5.32683 63.1794 5.22145C63.119 5.11692 63.0325 5.03593 62.92 4.97919C62.8075 4.92244 62.6777 4.89449 62.5291 4.89449H62.0392V6.27784H62.5291Z" fill="#669961"/>
<path d="M65.486 6.28051V6.59487H63.9729V4.57746H65.4454V4.89182H64.3475V5.41592H65.322V5.72398H64.3475V6.28051H65.486Z" fill="#669961"/>
<path d="M67.6236 4.57746V6.59487H67.3156L66.2033 5.2286V6.59487H65.8313V4.57746H66.1394L67.2516 5.94373V4.57746H67.6236Z" fill="#669961"/>
<path d="M68.5025 4.89449H67.8342V4.57746H69.5463V4.89449H68.878V6.59487H68.5034V4.89449H68.5025Z" fill="#669961"/>
<path d="M69.7566 4.57746H70.1312V6.59487H69.7566V4.57746Z" fill="#669961"/>
<path d="M73.1204 4.57746V6.59487H72.7457V5.73028H71.7029V6.59487H71.3281V4.57746H71.7029V5.41058H72.7457V4.57746H73.1204Z" fill="#669961"/>
<path d="M73.8057 6.38866C73.65 6.23196 73.5725 6.00764 73.5725 5.71588V4.57746H73.9472V5.70147C73.9472 6.09682 74.1183 6.295 74.4605 6.295C74.8027 6.295 74.9703 6.09682 74.9703 5.70147V4.57746H75.3395V5.71588C75.3395 6.00764 75.262 6.23196 75.1071 6.38866C74.9522 6.54537 74.7361 6.62368 74.4569 6.62368C74.1777 6.62368 73.9616 6.54537 73.8057 6.38866Z" fill="#669961"/>
<path d="M77.3594 6.27784V6.59487H75.6392V6.34451L76.8261 4.89449H75.659V4.57746H77.3215V4.82783L76.1345 6.27784H77.3594Z" fill="#669961"/>
<path d="M77.8466 6.38866C77.6907 6.23196 77.6133 6.00764 77.6133 5.71588V4.57746H77.988V5.70147C77.988 6.09682 78.1591 6.295 78.5013 6.295C78.8435 6.295 79.011 6.09682 79.011 5.70147V4.57746H79.3803V5.71588C79.3803 6.00764 79.3029 6.23196 79.148 6.38866C78.9931 6.54537 78.7769 6.62368 78.4977 6.62368C78.2185 6.62368 78.0024 6.54537 77.8466 6.38866Z" fill="#669961"/>
<path d="M81.1521 6.59487L80.7396 6.00411C80.7225 6.00583 80.6964 6.00677 80.6621 6.00677H80.2064V6.59487H79.8318V4.57746H80.6621C80.8369 4.57746 80.9891 4.60627 81.1187 4.66397C81.2484 4.72158 81.3475 4.80446 81.4169 4.91157C81.4862 5.01877 81.5204 5.14667 81.5204 5.29527C81.5204 5.44386 81.4835 5.57806 81.4096 5.68707C81.3358 5.79695 81.2295 5.87801 81.0909 5.932L81.5547 6.59487H81.1511H81.1521ZM81.0169 4.99807C80.9323 4.92873 80.8089 4.89449 80.6451 4.89449H80.2073V5.69872H80.6451C80.8081 5.69872 80.9323 5.66361 81.0169 5.59341C81.1016 5.52312 81.144 5.42403 81.144 5.29527C81.144 5.1665 81.1016 5.06741 81.0169 4.99807Z" fill="#669961"/>
<path d="M81.8662 4.57746H82.2409V6.59487H81.8662V4.57746Z" fill="#669961"/>
<path d="M82.7139 4.57746H83.5955C83.8108 4.57746 84.0017 4.61895 84.1692 4.70269C84.3367 4.78643 84.4664 4.90441 84.5583 5.0575C84.6501 5.21058 84.697 5.38626 84.697 5.58617C84.697 5.78608 84.6511 5.96262 84.5583 6.11484C84.4664 6.26792 84.3367 6.3859 84.1692 6.46964C84.0017 6.55347 83.8108 6.59487 83.5955 6.59487H82.7139V4.57746ZM83.5785 6.27784C83.7261 6.27784 83.8567 6.2499 83.9693 6.19324C84.0819 6.13649 84.1684 6.05628 84.2286 5.95089C84.289 5.84645 84.3196 5.72485 84.3196 5.58617C84.3196 5.44749 84.289 5.32683 84.2286 5.22145C84.1684 5.11692 84.0819 5.03593 83.9693 4.97919C83.8567 4.92244 83.7271 4.89449 83.5785 4.89449H83.0885V6.27784H83.5785Z" fill="#669961"/>
<path d="M86.3021 6.12838H85.2934L85.0944 6.59487H84.708L85.6158 4.57746H85.9851L86.8956 6.59487H86.5039L86.3021 6.12838ZM86.1778 5.83472L85.7978 4.95306L85.4204 5.83472H86.1787H86.1778Z" fill="#669961"/>
<path d="M88.4288 5.56279H88.7836V6.36701C88.6801 6.44989 88.5585 6.51293 88.4207 6.557C88.2828 6.60116 88.1397 6.62367 87.9938 6.62367C87.7884 6.62367 87.6029 6.57866 87.4372 6.48948C87.2715 6.4003 87.1427 6.27698 87.0481 6.11932C86.9536 5.96176 86.9067 5.78435 86.9067 5.58616C86.9067 5.38806 86.9536 5.21057 87.0481 5.05301C87.1418 4.89535 87.2724 4.77203 87.439 4.68285C87.6047 4.59367 87.792 4.54865 87.9992 4.54865C88.1685 4.54865 88.3216 4.5766 88.4603 4.6324C88.599 4.68828 88.7152 4.77021 88.8088 4.87741L88.5729 5.10794C88.4188 4.95391 88.2333 4.87741 88.0163 4.87741C87.874 4.87741 87.7479 4.90708 87.6371 4.96651C87.5263 5.02601 87.4399 5.10976 87.3777 5.21696C87.3156 5.32407 87.2841 5.44749 87.2841 5.58616C87.2841 5.72484 87.3156 5.84196 87.3777 5.94908C87.4399 6.05723 87.5263 6.14097 87.6371 6.20306C87.7479 6.26429 87.8731 6.295 88.0136 6.295C88.1712 6.295 88.3099 6.26076 88.4288 6.19142V5.56279Z" fill="#669961"/>
<path d="M89.2043 4.57746H89.579V6.59487H89.2043V4.57746Z" fill="#669961"/>
<path d="M53.0081 10.9662H54.2321V16.2553H53.0081V10.9662Z" fill="#131612"/>
<path d="M55.2862 16.1457C54.9869 16.0126 54.7413 15.8218 54.5496 15.5753L55.2296 14.7592C55.5167 15.1474 55.8444 15.3411 56.2118 15.3411C56.7105 15.3411 56.9599 15.0492 56.9599 14.4646V11.9485H55.1011V10.9662H58.1764V14.3966C58.1764 15.0464 58.0148 15.5337 57.6928 15.8586C57.3707 16.1835 56.8966 16.346 56.2723 16.346C55.9143 16.346 55.5856 16.279 55.2862 16.1457Z" fill="#131612"/>
<path d="M60.201 11.9636H58.5085V10.9662H63.1176V11.9636H61.4251V16.2553H60.201V11.9636Z" fill="#131612"/>
<path d="M63.5859 10.9662H64.81V16.2553H63.5859V10.9662Z" fill="#131612"/>
<path d="M70.6885 16.2553L70.681 13.0819L69.1245 15.6961H68.5729L67.0239 13.1499V16.2553H65.8755V10.9662H66.888L68.8676 14.253L70.817 10.9662H71.8219L71.8371 16.2553H70.6885Z" fill="#131612"/>
<path d="M73.9782 15.9908C73.5371 15.7538 73.1924 15.4279 72.9431 15.0123C72.6937 14.5968 72.5691 14.1293 72.5691 13.6107C72.5691 13.0922 72.6937 12.6247 72.9431 12.2091C73.1924 11.7936 73.5371 11.4678 73.9782 11.2307C74.4193 10.9937 74.9142 10.8755 75.4629 10.8755C76.0116 10.8755 76.5056 10.9937 76.9438 11.2307C77.3821 11.4678 77.7268 11.7936 77.9791 12.2091C78.2312 12.6247 78.3568 13.0922 78.3568 13.6107C78.3568 14.1293 78.2312 14.5968 77.9791 15.0123C77.7268 15.4279 77.3821 15.7538 76.9438 15.9908C76.5056 16.2279 76.0116 16.346 75.4629 16.346C74.9142 16.346 74.4193 16.2279 73.9782 15.9908ZM76.3092 15.088C76.5614 14.9444 76.7588 14.7442 76.9023 14.4872C77.0459 14.2304 77.1177 13.9385 77.1177 13.6107C77.1177 13.2831 77.0459 12.9912 76.9023 12.7343C76.7588 12.4774 76.5614 12.2771 76.3092 12.1336C76.057 11.9901 75.7756 11.9183 75.4629 11.9183C75.1503 11.9183 74.8689 11.9901 74.6166 12.1336C74.3645 12.2771 74.1671 12.4774 74.0235 12.7343C73.88 12.9912 73.8082 13.2831 73.8082 13.6107C73.8082 13.9385 73.88 14.2304 74.0235 14.4872C74.1671 14.7442 74.3645 14.9444 74.6166 15.088C74.8689 15.2315 75.1503 15.3033 75.4629 15.3033C75.7756 15.3033 76.057 15.2315 76.3092 15.088Z" fill="#131612"/>
<path d="M79.0896 10.9662H80.3137V16.2552H79.0896V10.9662Z" fill="#131612"/>
<path d="M83.9179 14.3814V16.2552H82.6939V14.3663L80.6462 10.9662H81.9458L83.3587 13.3161L84.7717 10.9662H85.9731L83.9179 14.3814Z" fill="#131612"/>
<path d="M57.8295 19.9086V25.1655H56.6128V23.0102H54.2247V25.1655H53.0081V19.9086H54.2247V21.9813H56.6128V19.9086H57.8295Z" fill="#131612"/>
<path d="M58.8884 19.9086H60.1051V25.1655H58.8884V19.9086Z" fill="#131612"/>
<path d="M65.9475 25.1655L65.9399 22.0114L64.3929 24.6098H63.8447L62.3051 22.079V25.1655H61.1636V19.9086H62.1699L64.1376 23.1754L66.0752 19.9086H67.074L67.089 25.1655H65.9475Z" fill="#131612"/>
<path d="M69.2179 24.9027C68.7795 24.6671 68.4369 24.3432 68.1891 23.9301C67.9413 23.5172 67.8174 23.0524 67.8174 22.537C67.8174 22.0217 67.9413 21.557 68.1891 21.1439C68.4369 20.731 68.7795 20.4071 69.2179 20.1715C69.6564 19.9359 70.1483 19.8185 70.6937 19.8185C71.239 19.8185 71.73 19.9359 72.1656 20.1715C72.6012 20.4071 72.9438 20.731 73.1944 21.1439C73.4451 21.557 73.57 22.0217 73.57 22.537C73.57 23.0524 73.4451 23.5172 73.1944 23.9301C72.9438 24.3432 72.6012 24.6671 72.1656 24.9027C71.73 25.1383 71.239 25.2557 70.6937 25.2557C70.1483 25.2557 69.6564 25.1383 69.2179 24.9027ZM71.5348 24.0053C71.7854 23.8626 71.9817 23.6636 72.1243 23.4082C72.267 23.1529 72.3384 22.8628 72.3384 22.537C72.3384 22.2114 72.267 21.9213 72.1243 21.666C71.9817 21.4106 71.7854 21.2115 71.5348 21.0689C71.2842 20.9262 71.0044 20.8548 70.6937 20.8548C70.383 20.8548 70.1032 20.9262 69.8525 21.0689C69.6019 21.2115 69.4057 21.4106 69.263 21.666C69.1203 21.9213 69.0489 22.2114 69.0489 22.537C69.0489 22.8628 69.1203 23.1529 69.263 23.4082C69.4057 23.6636 69.6019 23.8626 69.8525 24.0053C70.1032 24.148 70.383 24.2193 70.6937 24.2193C71.0044 24.2193 71.2842 24.148 71.5348 24.0053Z" fill="#131612"/>
<path d="M76.5967 23.3031V25.1655H75.3801V23.2881L73.345 19.9086H74.6367L76.041 22.2442L77.4453 19.9086H78.6395L76.5967 23.3031Z" fill="#131612"/>
<path d="M82.1017 24.039H79.661L79.1954 25.1655H77.9487L80.2918 19.9086H81.4934L83.844 25.1655H82.5673L82.1017 24.039ZM81.7187 23.1154L80.8851 21.1026L80.0515 23.1154H81.7187Z" fill="#131612"/>
<path d="M58.1188 34.8425L58.1107 31.4728L56.458 34.2488H55.8723L54.2275 31.5451V34.8425H53.0081V29.2263H54.0831L56.1851 32.7164L58.2551 29.2263H59.3222L59.3382 34.8425H58.1188Z" fill="#131612"/>
<path d="M60.469 29.2263H61.7687V34.8425H60.469V29.2263Z" fill="#131612"/>
<path d="M62.9004 29.2263H64.2002V33.7835H67.0162V34.8425H62.9004V29.2263Z" fill="#131612"/>
<path d="M67.5447 29.2263H68.8444V33.7835H71.6605V34.8425H67.5447V29.2263Z" fill="#131612"/>
<path d="M72.1899 29.2263H73.4897V34.8425H72.1899V29.2263Z" fill="#131612"/>
<path d="M77.317 32.8528V34.8425H76.0169V32.8367L73.8428 29.2263H75.2227L76.7235 31.7216L78.2236 29.2263H79.499L77.317 32.8528Z" fill="#131612"/>
<path d="M57.2977 42.7434H54.7766L54.2957 43.907H53.0081L55.4283 38.477H56.6694L59.0974 43.907H57.7787L57.2977 42.7434ZM56.9021 41.7893L56.0411 39.7104L55.18 41.7893H56.9021Z" fill="#131612"/>
<path d="M63.061 41.1066H64.209V43.3096C63.9142 43.5317 63.5729 43.7023 63.185 43.8216C62.7972 43.9409 62.4064 44 62.0138 44C61.4503 44 60.9433 43.8798 60.4933 43.6394C60.0434 43.3989 59.6905 43.0652 59.4345 42.6387C59.1785 42.212 59.0505 41.7301 59.0505 41.1919C59.0505 40.6538 59.1785 40.1718 59.4345 39.7452C59.6905 39.3186 60.0463 38.985 60.5011 38.7446C60.9559 38.5041 61.4678 38.3839 62.037 38.3839C62.5131 38.3839 62.9446 38.4644 63.3325 38.6244C63.7203 38.7843 64.046 39.017 64.3098 39.3224L63.5031 40.0671C63.1152 39.6589 62.6469 39.4544 62.0991 39.4544C61.7528 39.4544 61.4446 39.5271 61.1759 39.6716C60.9073 39.816 60.6979 40.0206 60.5476 40.2844C60.3974 40.5481 60.3226 40.8506 60.3226 41.1919C60.3226 41.5333 60.3974 41.828 60.5476 42.0918C60.6979 42.3555 60.9054 42.5611 61.172 42.7084C61.4387 42.8559 61.7423 42.9295 62.0835 42.9295C62.4453 42.9295 62.771 42.852 63.061 42.6968V41.1066Z" fill="#131612"/>
<path d="M69.383 42.8985V43.907H65.1787V38.477H69.2822V39.4854H66.4276V40.6644H68.9486V41.6419H66.4276V42.8985H69.383Z" fill="#131612"/>
<path d="M75.1703 38.477V43.9069H74.1386L71.4314 40.6102V43.9069H70.1902V38.477H71.2297L73.9291 41.7737V38.477H75.1703Z" fill="#131612"/>
<path d="M77.3887 39.5009H75.6511V38.477H80.383V39.5009H78.6454V43.9069H77.3887V39.5009Z" fill="#131612"/>
<path d="M80.8638 38.477H82.1204V42.8829H84.8432V43.9069H80.8638V38.477Z" fill="#131612"/>
<path d="M85.3552 38.477H86.6119V43.9069H85.3552V38.477Z" fill="#131612"/>
<path d="M91.3747 41.1066H92.5228V43.3096C92.228 43.5317 91.8867 43.7023 91.4988 43.8216C91.111 43.9409 90.7203 44 90.3275 44C89.7641 44 89.2571 43.8798 88.8071 43.6394C88.3572 43.3989 88.0043 43.0652 87.7483 42.6387C87.4923 42.212 87.3643 41.7301 87.3643 41.1919C87.3643 40.6538 87.4923 40.1718 87.7483 39.7452C88.0043 39.3186 88.3601 38.985 88.8149 38.7446C89.2696 38.5041 89.7816 38.3839 90.3508 38.3839C90.8268 38.3839 91.2583 38.4644 91.6462 38.6244C92.0341 38.7843 92.3599 39.017 92.6237 39.3224L91.8169 40.0671C91.429 39.6589 90.9607 39.4544 90.4128 39.4544C90.0667 39.4544 89.7583 39.5271 89.4898 39.6716C89.2211 39.816 89.0118 40.0206 88.8614 40.2844C88.7111 40.5481 88.6364 40.8506 88.6364 41.1919C88.6364 41.5333 88.7111 41.828 88.8614 42.0918C89.0118 42.3555 89.2192 42.5611 89.4859 42.7084C89.7525 42.8559 90.056 42.9295 90.3973 42.9295C90.759 42.9295 91.0848 42.852 91.3747 42.6968V41.1066Z" fill="#131612"/>
<path d="M93.4924 38.477H94.7491V43.907H93.4924V38.477Z" fill="#131612"/>
</svg>
