<svg width="120" height="26" viewBox="0 0 120 26" fill="none" xmlns="http://www.w3.org/2000/svg">
<path d="M14.6983 5.68683C8.6685 4.23919 4.45462 7.67929 1.86266 3.81113C1.8549 3.79554 1.84714 3.78776 1.83938 3.7722C1.76954 3.66324 1.86266 3.50758 1.98682 3.5387C7.32596 4.81514 8.19513 4.02126 10.4379 4.29366C12.5099 4.54271 14.6983 5.68683 14.6983 5.68683Z" fill="white"/>
<path d="M15.7618 6.65988C10.4536 5.8738 6.68982 9.85091 3.84952 6.7922C3.84176 6.78441 3.834 6.76885 3.81849 6.76107C3.74089 6.67546 3.79521 6.51979 3.9116 6.52758C8.76185 6.88559 9.90261 6.02946 11.8971 5.94385C13.7595 5.86602 15.7618 6.65988 15.7618 6.65988Z" fill="white"/>
<path d="M16.7473 7.91308C12.1142 7.28267 10.1277 11.4544 6.37165 8.90153C6.36389 8.89375 6.35613 8.88597 6.34061 8.87041C6.26302 8.80036 6.2863 8.59801 6.39493 8.59801C10.5002 8.60579 11.5711 7.64846 13.3018 7.43833C15.6454 7.15813 16.7473 7.91308 16.7473 7.91308Z" fill="white"/>
<path d="M18.8351 9.29052C16.4139 9.54736 16.7942 11.4931 14.1402 11.0573C13.791 11.0028 13.8686 10.7537 14.0238 10.707C16.2511 10.0688 16.2511 9.64075 17.0504 9.32164C17.8109 9.03368 18.8351 9.29052 18.8351 9.29052Z" fill="white"/>
<path d="M17.7412 8.69152C14.2491 8.76157 13.3567 11.2755 10.4155 10.4583C9.96534 10.3337 10.1206 9.99127 10.3611 9.96015C13.7292 9.42313 13.892 8.92501 15.1414 8.62925C16.3133 8.34907 17.7412 8.69152 17.7412 8.69152Z" fill="white"/>
<path d="M15.7463 5.67932C15.723 5.71822 15.6687 5.726 15.6299 5.71044C14.9082 5.29794 14.2331 4.81539 13.4571 4.28615C12.7276 3.79581 11.1599 3.12647 7.9006 3.28214C6.34852 3.35997 3.98938 3.67908 1.55261 2.00572C0.962824 1.60878 0.365272 0.931663 0.0548569 0.301249C0.0238175 0.24676 0.00829802 0.176709 0.00053817 0.106659C-0.00722168 0.0366079 0.0703763 -0.0178594 0.140236 0.00548377C6.17005 2.43379 7.89284 1.48427 11.6877 2.36374C13.2474 2.72955 15.1798 5.00219 15.7386 5.57034C15.7696 5.5937 15.7696 5.64039 15.7463 5.67932Z" fill="white"/>
<path d="M20.993 18.9881C20.923 19.2058 20.9385 19.4628 20.799 19.6496C20.6281 19.8987 20.2092 19.922 20.0073 19.6962C19.8754 19.5796 19.8754 19.3928 19.8288 19.2448C19.5262 17.914 19.2313 16.583 18.9364 15.2443C18.9055 15.151 18.9364 15.0887 19.0295 15.0499C19.177 15.0108 19.1925 15.1743 19.239 15.2678C19.5727 16.1784 19.8831 17.0967 20.2246 18.0073C20.3332 18.3187 20.6981 18.2174 20.9385 18.2954C21.1946 18.4587 21.0394 18.7623 20.993 18.9881Z" fill="white"/>
<path d="M21.3878 15.3147C21.419 15.4004 21.3723 15.5015 21.2793 15.517C21.225 15.5248 21.1783 15.517 21.1629 15.4392C20.9377 14.9878 20.7437 14.5131 20.5109 14.0617C20.2084 13.8047 19.8901 13.5402 19.704 13.1744C19.3702 12.5829 19.4012 11.8123 19.7737 11.2442C19.8047 11.2053 19.828 11.1586 19.8592 11.1196C19.9134 11.0418 20.0298 11.0574 20.0608 11.1508C20.0841 11.2208 20.0996 11.2909 20.1308 11.3531C20.5497 12.6685 20.9534 13.9994 21.3878 15.3147Z" fill="white"/>
<path d="M21.4494 9.04937C21.4339 9.3996 21.302 9.72649 21.2166 10.0612C21.2087 10.0845 21.2011 10.1001 21.1778 10.1078C21.1235 10.1312 21.0692 10.0923 21.0692 10.0378C21.0769 9.57861 21.2399 9.1272 21.1235 8.67577C20.9528 8.06092 20.5337 7.5239 20.5027 6.87012C20.487 6.52767 20.5725 6.193 20.6424 5.85833C20.394 5.33687 20.2776 4.73756 20.4094 4.16942C20.4328 4.09936 20.4406 4.09936 20.4794 4.15383C20.72 4.50409 21.0381 4.85432 21.0381 5.31351C21.0071 5.96728 20.6501 6.62106 20.8907 7.27484C21.0847 7.85857 21.5037 8.40337 21.4494 9.04937Z" fill="white"/>
<path d="M23.4987 6.79236C23.4832 7.64849 22.7382 8.33339 22.8236 9.2051C22.8236 9.53977 22.9089 9.88222 22.8701 10.2169C22.8158 10.5126 22.4821 10.5593 22.2417 10.6294C22.1019 10.6917 21.9467 10.5282 21.9855 10.3881C21.9855 9.37632 21.9855 8.35675 21.9855 7.34496C22.001 6.92468 22.1019 6.48103 22.389 6.16194C22.5675 5.95179 22.7537 5.74166 22.9477 5.53151C22.9865 5.4848 23.0098 5.43033 23.0022 5.37584C22.9865 5.18906 22.9477 5.02561 23.0331 4.80768C23.165 4.53528 23.3359 4.37183 23.5142 4.19283C23.5454 4.1617 23.5918 4.17726 23.5996 4.21617C23.7239 4.76877 23.5996 5.36806 23.3435 5.86618C23.4056 6.16194 23.4987 6.47325 23.4987 6.79236Z" fill="white"/>
<path d="M33.3002 3.66321C32.2447 3.95895 31.7558 4.31697 31.3369 4.65164C31.3369 4.65164 32.2914 4.31697 33.6648 4.16911C37.5607 3.74104 37.7856 5.19646 42.147 3.50755C42.2944 3.4842 42.3332 3.60094 42.2944 3.66321C41.7124 4.675 41.0683 5.79575 38.6316 5.89692C35.9775 6.0059 34.5962 4.93962 32.105 5.25873C30.5143 5.46108 29.6916 5.95919 29.2337 6.26274C34.666 5.2198 34.2159 7.61698 39.5394 6.34057C39.6015 6.32499 39.6715 6.30943 39.7336 6.31721C39.8731 6.33277 39.9276 6.50402 39.8422 6.59741C39.8034 6.6441 39.7491 6.6908 39.7103 6.73749C39.0119 7.49244 38.2745 8.31745 35.7912 8.13066C32.8734 7.91273 32.6872 6.0993 27.1152 7.48466C32.5163 7.46132 32.4233 9.23584 36.4898 8.7066C36.6295 8.69104 36.7147 8.86227 36.6062 8.95566C36.544 9.01013 36.4741 9.05684 36.4198 9.10355C35.8069 9.58608 34.9143 10.1776 33.238 9.83513C29.7459 9.10355 30.1884 7.65589 25.6951 8.44977C29.1949 8.54316 28.9544 9.90519 32.5475 10.2399C32.5475 10.2399 32.5475 10.2399 32.5551 10.2399C32.7491 10.2632 32.8036 10.52 32.6406 10.629C32.5163 10.7146 32.3766 10.7769 32.2447 10.8314C29.6219 11.8509 28.4034 8.55094 25.1828 9.29033C27.4877 9.49268 27.3013 10.271 29.3812 10.8391C29.6062 10.9014 29.5831 11.205 29.3346 11.2283C26.8669 11.4774 27.0842 9.81179 25.5708 9.74952C25.1674 9.73396 24.7949 9.95189 24.593 10.3099C23.9955 11.3528 24.236 12.3413 24.1972 12.8783C24.3369 13.4387 24.5466 13.9836 24.5542 14.5749C24.5621 14.9875 24.5233 15.4156 24.3912 15.8124C24.1429 16.6374 23.8946 17.4626 23.6385 18.2954C23.5842 18.4665 23.5919 18.6533 23.654 18.8167C23.7471 19.0659 23.8404 19.3071 23.8792 19.5717C23.9722 20.0153 23.9101 20.4745 23.7549 20.9026C23.429 21.7042 23.103 22.5059 22.7771 23.3153C22.715 23.4631 22.6685 23.6189 22.5598 23.7434C22.3969 23.7746 22.4124 23.5645 22.4279 23.4631C22.7461 20.4667 23.0487 17.4702 23.3591 14.4738L23.6076 13.7578C23.1186 14.178 22.9013 14.7617 22.5831 15.2833C22.5443 15.4077 22.3581 15.431 22.3193 15.2911C22.3503 14.7695 22.42 14.2482 22.4357 13.7266C22.4822 13.1974 22.4745 12.6604 22.6531 12.1545C22.8547 11.6408 23.2427 11.2283 23.5454 10.7847C24.042 10.1465 24.4145 9.42263 24.6706 8.6599C24.8258 8.19293 25.1519 7.78043 25.5708 7.52359C27.0221 6.60519 27.8678 5.81131 29.2415 4.76839C30.5064 3.81107 31.4842 3.0639 32.0431 2.83821C34.5962 1.78749 39.7258 2.91604 44.1182 0.0518881C44.2267 -0.0103816 44.3664 0.114137 44.2812 0.293144C43.8699 1.33608 43.381 2.00542 42.2168 2.58137C38.8644 4.23916 35.0152 3.18066 33.3002 3.66321Z" fill="white"/>
<path d="M23.119 5.46168C23.119 5.46168 22.8318 4.95578 22.1334 4.89351C21.6057 4.84682 21.3652 5.02583 21.3652 5.02583C21.3652 5.02583 22.0015 4.83904 22.4983 5.28267C22.9948 5.7263 22.7232 6.10767 22.7232 6.10767C22.7232 6.10767 23.2664 5.78857 23.119 5.46168Z" fill="white"/>
<path d="M23.0872 5.39099C23.0872 5.39099 22.7226 5.00185 21.9775 4.9707C21.9775 4.9707 22.4198 5.07966 22.4743 5.32094C22.5674 5.78015 22.1639 6.395 22.0863 6.69076C22.0242 6.95538 23.0872 5.39099 23.0872 5.39099Z" fill="white"/>
<path opacity="0.8" d="M88.6314 15.7131C87.6213 15.8803 86.5987 15.9579 85.5753 15.945C83.6559 15.945 81.5977 14.6765 81.5977 11.1346V9.06167C81.5977 5.30614 83.7554 4.23801 85.7114 4.23801C86.6891 4.22926 87.6656 4.3016 88.6314 4.45427C88.7675 4.47011 88.8932 4.53077 88.8932 4.68637V5.45909C88.8932 5.56722 88.833 5.61471 88.6941 5.61471H88.6339C87.7277 5.53821 87.0209 5.50656 85.714 5.50656C84.2869 5.50656 82.9959 6.2793 82.9959 9.06167V11.1346C82.9959 13.6876 84.1482 14.6924 85.5779 14.6924C86.5129 14.6924 87.1491 14.6318 87.5104 14.6V10.1773C87.5072 10.1382 87.5119 10.0989 87.5244 10.0618C87.5367 10.0247 87.5566 9.99048 87.5825 9.96135C87.6086 9.9322 87.6402 9.90871 87.6756 9.89234C87.711 9.87595 87.7491 9.867 87.7879 9.86607H88.6182C88.6971 9.87014 88.7715 9.90481 88.8256 9.96282C88.8798 10.0208 88.9095 10.0977 88.9089 10.1773V15.3728C88.9112 15.4538 88.8843 15.5328 88.8334 15.5954C88.7823 15.6579 88.7104 15.6997 88.6314 15.7131Z" fill="white"/>
<path opacity="0.8" d="M94.6327 8.41277C93.9178 8.38421 93.202 8.43641 92.4985 8.56837V15.5283C92.5023 15.6037 92.4773 15.6777 92.4286 15.735C92.3798 15.7924 92.3113 15.8289 92.2367 15.8367H91.438C91.3606 15.8327 91.2881 15.7979 91.236 15.7403C91.184 15.6824 91.1569 15.6063 91.1605 15.5283V8.01189C91.1649 7.93422 91.1927 7.85974 91.2398 7.79813C91.287 7.73652 91.3515 7.69062 91.4249 7.6664C92.2994 7.27873 93.3602 7.23389 94.6327 7.23389C94.8343 7.23389 94.9575 7.2497 94.9575 7.46596V8.17542C94.9575 8.3363 94.9261 8.41277 94.6327 8.41277Z" fill="white"/>
<path opacity="0.8" d="M99.7284 15.9452C97.4712 15.9452 96.3242 14.4447 96.3242 12.1713V10.995C96.3242 8.72165 97.4763 7.22363 99.7284 7.22363C101.98 7.22363 103.133 8.72165 103.133 10.995V12.1713C103.133 14.4447 101.973 15.9452 99.7284 15.9452ZM101.802 10.995C101.802 9.41261 101.171 8.41307 99.7284 8.41307C98.2856 8.41307 97.6701 9.4047 97.6701 10.995V12.1713C97.6701 13.7536 98.2856 14.7558 99.7284 14.7558C101.171 14.7558 101.802 13.7642 101.802 12.1713V10.995Z" fill="white"/>
<path opacity="0.8" d="M108.255 15.945H108.109C107.061 15.945 104.945 15.3568 104.945 12.3108V7.64011C104.942 7.60076 104.947 7.56116 104.96 7.52382C104.972 7.48647 104.993 7.4522 105.019 7.42318C105.046 7.39417 105.078 7.37104 105.114 7.35527C105.15 7.3395 105.189 7.33142 105.228 7.33154H106.027C106.065 7.33214 106.104 7.34075 106.139 7.35684C106.174 7.37293 106.206 7.39617 106.232 7.42511C106.258 7.45405 106.278 7.48808 106.29 7.52505C106.303 7.56205 106.308 7.60121 106.304 7.64011V12.3108C106.304 14.157 107.09 14.7555 108.117 14.7555H108.255C109.282 14.7555 110.067 14.1674 110.067 12.3108V7.64011C110.064 7.60142 110.069 7.56247 110.081 7.52567C110.093 7.48886 110.113 7.45496 110.139 7.42606C110.164 7.39716 110.196 7.37386 110.231 7.35762C110.266 7.34136 110.304 7.3325 110.342 7.33154H111.141C111.18 7.33214 111.218 7.34075 111.253 7.35684C111.289 7.37293 111.32 7.39617 111.346 7.42511C111.372 7.45405 111.392 7.48808 111.405 7.52505C111.417 7.56205 111.422 7.60121 111.419 7.64011V12.3108C111.419 15.3568 109.297 15.945 108.255 15.945Z" fill="white"/>
<path opacity="0.8" d="M116.652 15.9454C116.05 15.9373 115.449 15.8809 114.856 15.7766V18.5748C114.856 18.6134 114.848 18.6514 114.834 18.687C114.819 18.7224 114.798 18.7546 114.771 18.782C114.744 18.8091 114.712 18.8307 114.677 18.8453C114.641 18.86 114.603 18.8676 114.565 18.8676H113.78C113.742 18.8672 113.705 18.8593 113.671 18.8445C113.636 18.8294 113.605 18.8076 113.58 18.7803C113.553 18.7531 113.533 18.7207 113.52 18.6855C113.507 18.6503 113.501 18.6126 113.502 18.5748V7.93062C113.502 7.7302 113.549 7.63789 113.824 7.57723C114.75 7.35124 115.698 7.23181 116.65 7.22119C118.938 7.22119 119.999 8.71918 119.999 11.04V12.1504C120.002 14.5846 118.894 15.9454 116.652 15.9454ZM118.648 11.0427C118.648 9.41808 118.174 8.36842 116.652 8.36842C116.05 8.37194 115.45 8.42308 114.856 8.52139V14.6453C115.45 14.7434 116.05 14.7956 116.652 14.8009C118.158 14.8009 118.648 13.8118 118.648 12.1635V11.0427Z" fill="white"/>
<path d="M61.9025 15.8185C61.2111 15.9266 59.2837 16.0638 58.6161 16.0638C55.6518 16.0638 53.6406 15.3147 53.6406 11.5645V4.7286C53.6413 4.689 53.6497 4.64995 53.6656 4.61369C53.6815 4.57746 53.7042 4.54474 53.7329 4.5175C53.7613 4.49023 53.795 4.46897 53.8317 4.45495C53.8685 4.44094 53.9078 4.43445 53.947 4.43585H56.4505C56.4897 4.43409 56.5292 4.44032 56.566 4.45421C56.6029 4.4681 56.6369 4.48932 56.6655 4.51665C56.6939 4.54398 56.7168 4.57684 56.7325 4.61324C56.7482 4.64967 56.7564 4.68889 56.7569 4.7286V11.5645C56.7569 12.9571 57.2178 13.4107 58.3097 13.4107C58.8026 13.4091 59.2949 13.3774 59.7841 13.3157V4.7286C59.7843 4.68889 59.7925 4.64967 59.8082 4.61324C59.8239 4.57684 59.8468 4.54398 59.8754 4.51665C59.9041 4.48932 59.9378 4.4681 59.9747 4.45421C60.0116 4.44032 60.051 4.43409 60.0904 4.43585H62.578C62.6592 4.43225 62.7383 4.46095 62.7987 4.51572C62.859 4.5705 62.8954 4.64698 62.9001 4.7286V14.6265C62.9001 15.4915 62.6382 15.7103 61.9025 15.8185Z" fill="white"/>
<path d="M67.7209 15.9266H65.2017C65.1211 15.9247 65.0446 15.891 64.9882 15.8327C64.932 15.7746 64.9004 15.6965 64.9004 15.6155V4.72858C64.9012 4.68944 64.9095 4.65083 64.925 4.61494C64.9405 4.57904 64.9629 4.54656 64.9909 4.51938C65.0189 4.4922 65.0518 4.47083 65.088 4.45649C65.1241 4.44216 65.1629 4.43514 65.2017 4.43584H67.7209C67.7601 4.43406 67.7995 4.4403 67.8364 4.45418C67.8733 4.46807 67.9072 4.48932 67.9356 4.51664C67.9643 4.54395 67.9872 4.57681 68.0028 4.61324C68.0185 4.64964 68.0268 4.68889 68.0272 4.72858V15.6155C68.0274 15.6563 68.0198 15.6965 68.0045 15.7343C67.9893 15.772 67.9668 15.8064 67.9384 15.8354C67.9098 15.8642 67.8761 15.8871 67.8385 15.9028C67.8012 15.9185 67.7611 15.9266 67.7209 15.9266Z" fill="white"/>
<path d="M76.6262 15.7869C75.9276 15.9875 75.2027 16.081 74.4763 16.0638C71.6508 16.0638 69.7471 14.5184 69.7471 10.9765V9.39408C69.7471 5.84159 71.6508 4.29613 74.4763 4.29613C75.2027 4.28042 75.9272 4.37375 76.6262 4.57305C76.8724 4.65217 76.9642 4.69699 76.9642 4.91327V6.8939C76.9642 7.09432 76.8724 7.18663 76.7023 7.18663H76.655C75.9414 7.10265 75.2237 7.05688 74.5052 7.0495C73.6751 7.0495 72.9339 7.41873 72.9339 9.38352V10.9659C72.9339 12.9149 73.6724 13.3026 74.5052 13.3026C75.2237 13.2945 75.9414 13.2478 76.655 13.1628H76.6839C76.8673 13.1628 76.9457 13.2551 76.9457 13.4556V15.4466C76.9642 15.6472 76.8724 15.7104 76.6262 15.7869Z" fill="white"/>
</svg>
