<svg width="16" height="12" viewBox="0 0 16 12" fill="none" xmlns="http://www.w3.org/2000/svg">
<path fill-rule="evenodd" clip-rule="evenodd" d="M6.348 7.75664L6.3475 3.22925L10.6705 5.50075L6.348 7.75664ZM15.84 2.44472C15.84 2.44472 15.6835 1.3344 15.204 0.845459C14.5955 0.203437 13.9135 0.200409 13.601 0.163147C11.362 -2.36432e-06 8.0035 0 8.0035 0H7.9965C7.9965 0 4.638 -2.36432e-06 2.399 0.163147C2.086 0.200409 1.4045 0.203437 0.795502 0.845459C0.316002 1.3344 0.159999 2.44472 0.159999 2.44472C0.159999 2.44472 0 3.74891 0 5.05259V6.27521C0 7.57939 0.159999 8.88308 0.159999 8.88308C0.159999 8.88308 0.316002 9.9934 0.795502 10.4823C1.4045 11.1244 2.204 11.1042 2.56 11.1712C3.84 11.2951 8 11.3333 8 11.3333C8 11.3333 11.362 11.3283 13.601 11.1652C13.9135 11.1274 14.5955 11.1244 15.204 10.4823C15.6835 9.9934 15.84 8.88308 15.84 8.88308C15.84 8.88308 16 7.57939 16 6.27521V5.05259C16 3.74891 15.84 2.44472 15.84 2.44472Z" fill="#DA6B3B"/>
</svg>
